name rise35.5848peak51.9257fall54.8793.mot
datacolumns 19
datarows 29
range 15.31493900000000 15.36160400000000
endheader
time	ground_force1_vx	ground_force1_vy	ground_force1_vz	ground_force1_px	ground_force1_py	ground_force1_pz	ground_force2_vx	ground_force2_vy	ground_force2_vz	ground_force2_px	ground_force2_py	ground_force2_pz	ground_torque1_x	ground_torque1_y	ground_torque1_z	ground_torque2_x	ground_torque2_y	ground_torque2_z	
15.31493900000000	-10.24372900000000	41.33771400000000	-12.27427300000000	0.26129400000000	0.00000000000000	0.10217000000000	-45.69051100000000	773.41042800000002	-48.78919400000000	0.07834300000000	0.00000000000000	-0.07669400000000	0.00000000000000	-5.84727700000000	0.00000000000000	0.00000000000000	-12.73148800000000	0.00000000000000	
15.31660700000000	-11.26909400000000	48.56111900000000	-13.76093600000000	0.26623800000000	0.00000000000000	0.10366300000000	-46.44161100000000	770.64110800000003	-48.44933400000000	0.07752200000000	0.00000000000000	-0.07656200000000	0.00000000000000	-6.65159000000000	0.00000000000000	0.00000000000000	-12.72954500000000	0.00000000000000	
15.31827400000000	-12.11179100000000	55.90636500000000	-15.09788000000000	0.27079400000000	0.00000000000000	0.10499700000000	-47.21674000000000	767.77085299999999	-48.09604100000000	0.07670600000000	0.00000000000000	-0.07642800000000	0.00000000000000	-7.40377300000000	0.00000000000000	0.00000000000000	-12.73257300000000	0.00000000000000	
15.31993800000000	-12.74476500000000	63.28198300000000	-16.25298900000000	0.27502000000000	0.00000000000000	0.10619800000000	-48.01494900000000	764.79622700000004	-47.72913500000000	0.07589500000000	0.00000000000000	-0.07629100000000	0.00000000000000	-8.08658400000000	0.00000000000000	0.00000000000000	-12.74044500000000	0.00000000000000	
15.32161500000000	-13.15212900000000	70.61836700000001	-17.20545800000000	0.27896400000000	0.00000000000000	0.10728700000000	-48.83516300000000	761.71368800000005	-47.34843800000000	0.07509000000000	0.00000000000000	-0.07615100000000	0.00000000000000	-8.68780500000000	0.00000000000000	0.00000000000000	-12.75300700000000	0.00000000000000	
15.32326800000000	-13.32899200000000	77.87002200000001	-17.94586900000000	0.28266200000000	0.00000000000000	0.10828100000000	-49.67618200000000	758.51959199999999	-46.95377900000000	0.07429300000000	0.00000000000000	-0.07600800000000	0.00000000000000	-9.20047700000000	0.00000000000000	0.00000000000000	-12.77008400000000	0.00000000000000	
15.32494100000000	-13.28043800000000	85.01544000000000	-18.47533900000000	0.28614400000000	0.00000000000000	0.10919100000000	-50.53667800000000	755.21021499999995	-46.54499500000000	0.07350400000000	0.00000000000000	-0.07586200000000	0.00000000000000	-9.62267900000000	0.00000000000000	0.00000000000000	-12.79147600000000	0.00000000000000	
15.32660600000000	-13.01984500000000	92.05503600000000	-18.80394000000000	0.28943500000000	0.00000000000000	0.11003000000000	-51.41519900000000	751.78176399999995	-46.12192900000000	0.07272400000000	0.00000000000000	-0.07571300000000	0.00000000000000	-9.95692400000000	0.00000000000000	0.00000000000000	-12.81696100000000	0.00000000000000	
15.32826600000000	-12.56682500000000	99.00760900000000	-18.94865800000000	0.29255300000000	0.00000000000000	0.11080700000000	-52.31016800000000	748.23039100000005	-45.68443700000000	0.07195500000000	0.00000000000000	-0.07556000000000	0.00000000000000	-10.20929500000000	0.00000000000000	0.00000000000000	-12.84629400000000	0.00000000000000	
15.32994100000000	-11.94500300000000	105.90592400000000	-18.93114200000000	0.29551600000000	0.00000000000000	0.11152800000000	-53.21988800000000	744.55221100000006	-45.23238600000000	0.07119600000000	0.00000000000000	-0.07540500000000	0.00000000000000	-10.38844200000000	0.00000000000000	0.00000000000000	-12.87920900000000	0.00000000000000	
15.33161200000000	-11.17985100000000	112.79189599999999	-18.77545900000000	0.29833600000000	0.00000000000000	0.11220100000000	-54.14254000000000	740.74331700000005	-44.76565800000000	0.07044900000000	0.00000000000000	-0.07524700000000	0.00000000000000	-10.50452600000000	0.00000000000000	0.00000000000000	-12.91541700000000	0.00000000000000	
15.33326800000000	-10.29674500000000	119.71186200000000	-18.50604200000000	0.30102500000000	0.00000000000000	0.11283100000000	-55.07619000000000	736.79980200000000	-44.28415200000000	0.06971500000000	0.00000000000000	-0.07508600000000	0.00000000000000	-10.56823200000000	0.00000000000000	0.00000000000000	-12.95460800000000	0.00000000000000	
15.33493600000000	-9.31936000000000	126.71228700000000	-18.14595800000000	0.30359200000000	0.00000000000000	0.11342300000000	-56.01879000000000	732.71777199999997	-43.78778400000000	0.06899300000000	0.00000000000000	-0.07492200000000	0.00000000000000	-10.58990100000000	0.00000000000000	0.00000000000000	-12.99645300000000	0.00000000000000	
15.33660100000000	-8.26847200000000	133.83617500000000	-17.71557800000000	0.30604400000000	0.00000000000000	0.11398100000000	-56.96818300000000	728.49337000000003	-43.27649000000000	0.06828500000000	0.00000000000000	-0.07475500000000	0.00000000000000	-10.57883700000000	0.00000000000000	0.00000000000000	-13.04060100000000	0.00000000000000	
15.33827400000000	-7.16118300000000	141.12034100000000	-17.23168600000000	0.30838900000000	0.00000000000000	0.11450700000000	-57.92210600000000	724.12279500000000	-42.75023000000000	0.06759100000000	0.00000000000000	-0.07458400000000	0.00000000000000	-10.54280900000000	0.00000000000000	0.00000000000000	-13.08668500000000	0.00000000000000	
15.33994100000000	-6.01056000000000	148.59358599999999	-16.70701200000000	0.31063200000000	0.00000000000000	0.11500500000000	-58.87819800000000	719.60232199999996	-42.20898600000000	0.06691200000000	0.00000000000000	-0.07441100000000	0.00000000000000	-10.48776500000000	0.00000000000000	0.00000000000000	-13.13431900000000	0.00000000000000	
15.34161700000000	-4.82564300000000	156.27576600000000	-16.15014600000000	0.31277700000000	0.00000000000000	0.11547900000000	-59.83400400000000	714.92832599999997	-41.65276600000000	0.06624700000000	0.00000000000000	-0.07423500000000	0.00000000000000	-10.41772800000000	0.00000000000000	0.00000000000000	-13.18310200000000	0.00000000000000	
15.34327300000000	-3.61174000000000	164.17765800000001	-15.56578800000000	0.31482900000000	0.00000000000000	0.11592900000000	-60.78697900000000	710.09730200000001	-41.08160500000000	0.06559800000000	0.00000000000000	-0.07405600000000	0.00000000000000	-10.33485900000000	0.00000000000000	0.00000000000000	-13.23261700000000	0.00000000000000	
15.34493700000000	-2.37095700000000	172.30147900000000	-14.95523000000000	0.31679100000000	0.00000000000000	0.11635700000000	-61.73450000000000	705.10589100000004	-40.49556700000000	0.06496400000000	0.00000000000000	-0.07387400000000	0.00000000000000	-10.23965100000000	0.00000000000000	0.00000000000000	-13.28243400000000	0.00000000000000	
15.34660400000000	-1.10286100000000	180.64191600000001	-14.31701100000000	0.31866600000000	0.00000000000000	0.11676700000000	-62.67386500000000	699.95089900000005	-39.89474700000000	0.06434500000000	0.00000000000000	-0.07368900000000	0.00000000000000	-10.13122000000000	0.00000000000000	0.00000000000000	-13.33210900000000	0.00000000000000	
15.34827000000000	0.19479000000000	189.18747400000001	-13.64765200000000	0.32045600000000	0.00000000000000	0.11715800000000	-63.60231000000000	694.62932200000000	-39.27927200000000	0.06374200000000	0.00000000000000	-0.07350100000000	0.00000000000000	-10.00764100000000	0.00000000000000	0.00000000000000	-13.38119000000000	0.00000000000000	
15.34993700000000	1.52531600000000	197.92200399999999	-12.94241500000000	0.32216400000000	0.00000000000000	0.11753300000000	-64.51700900000000	689.13836900000001	-38.64930000000000	0.06315500000000	0.00000000000000	-0.07331100000000	0.00000000000000	-9.86631300000000	0.00000000000000	0.00000000000000	-13.42921300000000	0.00000000000000	
15.35161300000000	2.89244200000000	206.82624899999999	-12.19600200000000	0.32379100000000	0.00000000000000	0.11789300000000	-65.41508500000000	683.47548099999995	-38.00502500000000	0.06258300000000	0.00000000000000	-0.07311700000000	0.00000000000000	-9.70430800000000	0.00000000000000	0.00000000000000	-13.47570900000000	0.00000000000000	
15.35327400000000	4.29971700000000	215.87929900000000	-11.40318600000000	0.32533900000000	0.00000000000000	0.11823900000000	-66.29361900000001	677.63835200000005	-37.34667600000000	0.06202700000000	0.00000000000000	-0.07292100000000	0.00000000000000	-9.51868300000000	0.00000000000000	0.00000000000000	-13.52020100000000	0.00000000000000	
15.35493800000000	5.75005600000000	225.05986600000000	-10.55930700000000	0.32680900000000	0.00000000000000	0.11857100000000	-67.14965900000000	671.62494900000002	-36.67451600000000	0.06148500000000	0.00000000000000	-0.07272300000000	0.00000000000000	-9.30674300000000	0.00000000000000	0.00000000000000	-13.56220800000000	0.00000000000000	
15.35660600000000	7.24541200000000	234.34732099999999	-9.66065000000000	0.32820300000000	0.00000000000000	0.11889100000000	-67.98022899999999	665.43352300000004	-35.98885000000000	0.06095900000000	0.00000000000000	-0.07252200000000	0.00000000000000	-9.06624100000000	0.00000000000000	0.00000000000000	-13.60124800000000	0.00000000000000	
15.35826600000000	8.78657700000000	243.72245699999999	-8.70468200000000	0.32952100000000	0.00000000000000	0.11920000000000	-68.78233800000000	659.06263300000001	-35.29001600000000	0.06044700000000	0.00000000000000	-0.07231800000000	0.00000000000000	-8.79551200000000	0.00000000000000	0.00000000000000	-13.63683700000000	0.00000000000000	
15.35993800000000	10.37310600000000	253.16799100000000	-7.69016100000000	0.33076400000000	0.00000000000000	0.11949700000000	-69.55299200000000	652.51114800000005	-34.57839500000000	0.05995000000000	0.00000000000000	-0.07211100000000	0.00000000000000	-8.49354200000000	0.00000000000000	0.00000000000000	-13.66849100000000	0.00000000000000	
15.36160400000000	12.00333800000000	262.66881100000001	-6.61714800000000	0.33193300000000	0.00000000000000	0.11978400000000	-70.28919999999999	645.77826000000005	-33.85440700000000	0.05946600000000	0.00000000000000	-0.07190300000000	0.00000000000000	-8.15998900000000	0.00000000000000	0.00000000000000	-13.69573200000000	0.00000000000000	
